<?xml version="1.0" encoding="UTF-8" standalone="no"?>
<!-- Created with Inkscape (http://www.inkscape.org/) -->

<svg
   xmlns:dc="http://purl.org/dc/elements/1.1/"
   xmlns:cc="http://creativecommons.org/ns#"
   xmlns:rdf="http://www.w3.org/1999/02/22-rdf-syntax-ns#"
   xmlns:svg="http://www.w3.org/2000/svg"
   xmlns="http://www.w3.org/2000/svg"
   xmlns:xlink="http://www.w3.org/1999/xlink"
   xmlns:sodipodi="http://sodipodi.sourceforge.net/DTD/sodipodi-0.dtd"
   xmlns:inkscape="http://www.inkscape.org/namespaces/inkscape"
   width="80"
   height="80"
   id="svg2"
   version="1.1"
   inkscape:version="0.48.4 r9939"
   sodipodi:docname="ubuntu-authenticator.svg">
  <defs
     id="defs4">
    <linearGradient
       id="linearGradient3771">
      <stop
         style="stop-color:#000000;stop-opacity:1;"
         offset="0"
         id="stop3773" />
      <stop
         id="stop3779"
         offset="0.5"
         style="stop-color:#555555;stop-opacity:1;" />
      <stop
         style="stop-color:#888888;stop-opacity:1;"
         offset="1"
         id="stop3775" />
    </linearGradient>
    <linearGradient
       inkscape:collect="always"
       xlink:href="#linearGradient3771"
       id="linearGradient3777"
       x1="40"
       y1="80"
       x2="40"
       y2="0"
       gradientUnits="userSpaceOnUse" />
  </defs>
  <sodipodi:namedview
     id="base"
     pagecolor="#ffffff"
     bordercolor="#666666"
     borderopacity="1.0"
     inkscape:pageopacity="0.0"
     inkscape:pageshadow="2"
     inkscape:zoom="15.839192"
     inkscape:cx="22.802438"
     inkscape:cy="41.272815"
     inkscape:document-units="px"
     inkscape:current-layer="layer1"
     showgrid="true"
     inkscape:window-width="2880"
     inkscape:window-height="1719"
     inkscape:window-x="-8"
     inkscape:window-y="46"
     inkscape:window-maximized="1">
    <inkscape:grid
       type="xygrid"
       id="grid2985"
       empspacing="5"
       visible="true"
       enabled="true"
       snapvisiblegridlinesonly="true" />
  </sodipodi:namedview>
  <metadata
     id="metadata7">
    <rdf:RDF>
      <cc:Work
         rdf:about="">
        <dc:format>image/svg+xml</dc:format>
        <dc:type
           rdf:resource="http://purl.org/dc/dcmitype/StillImage" />
        <dc:title></dc:title>
      </cc:Work>
    </rdf:RDF>
  </metadata>
  <g
     inkscape:label="Layer 1"
     inkscape:groupmode="layer"
     id="layer1"
     transform="translate(0,-972.3622)">
    <rect
       style="fill:url(#linearGradient3777);fill-opacity:1;fill-rule:evenodd;stroke:none"
       id="rect3001"
       width="80"
       height="80"
       x="0"
       y="0"
       transform="translate(0,972.3622)"
       rx="5"
       ry="5" />
    <g
       id="g3835"
       transform="matrix(0.84813331,0,0,0.84813331,6.4592371,154.04201)">
      <path
         style="opacity:0.06666703;fill:#000000;fill-opacity:1;fill-rule:evenodd;stroke:none"
         d="m 65.5625,989.0625 c -9.827544,6.10839 -17.690925,15.2341 -26.6875,22.625 -9.50391,-6.0799 -23.412098,1.7264 -22.84375,13 -0.560007,2.916 2.514582,8.7093 2.9375,8.75 -4.085592,-6.3274 4.260494,-14.5165 10.5,-10.1563 6.62684,3.6732 2.917463,14.898 -4.59375,13.8438 -1.565371,0.5107 -6.109762,-3.2114 -3.1875,-0.75 8.857442,7.7932 24.479818,0.614 24.3125,-11.0938 0.683726,-3.415 -2.686761,-7.0866 0.59375,-9.3437 -1.919838,-5.4834 0.930706,-7.4146 6.633674,-7.1067 0.476754,-6.1167 1.447438,-11.60516 9.387538,-10.18973 0.521033,-3.5388 2.796638,-8.94703 4.291288,-8.82857 -0.342608,-0.35203 -0.772254,-0.94259 -1.34375,-0.75 z m -45.6875,45.5937 c 0.424654,0.2502 -1.000498,-1.0164 0,0 z"
         id="path3837"
         inkscape:connector-curvature="0" />
      <path
         style="opacity:0.06666703;fill:#000000;fill-opacity:1;fill-rule:evenodd;stroke:none"
         d="m 65.46875,988.71875 c -9.856111,6.06315 -17.696263,15.20195 -26.65625,22.56245 -9.929929,-6.2642 -24.230421,2.4104 -23.09375,14.0626 -0.04818,11.7695 15.287137,19.1173 24.46875,11.625 5.830815,-4.1815 7.709808,-12.3156 4.9375,-18.7813 4.685267,-1.701 -2.129474,-9.3136 4.208014,-8.4274 8.792481,2.1411 1.452989,-11.70756 9.340664,-10.30733 8.427007,2.67153 2.456599,-10.18355 9.263822,-8.48402 1.242683,0.51831 -1.459439,-2.81226 -2.46875,-2.25 z M 25.25,1022.5 c 7.194146,-0.6118 10.179664,10.1529 3.75,13.375 -6.306387,4.0383 -14.08092,-4.8405 -9.21875,-10.5625 1.297728,-1.6754 3.350761,-2.7405 5.46875,-2.8125 z"
         id="path3841"
         inkscape:connector-curvature="0" />
      <path
         style="opacity:0.06666703;fill:#000000;fill-opacity:1;fill-rule:evenodd;stroke:none"
         d="m 65.625,988.34375 c -10.154045,5.79588 -17.80961,15.17335 -26.875,22.50005 -10.166878,-6.1542 -24.53915,2.6846 -23.40625,14.5312 -0.02653,12.4591 16.45027,19.7188 25.625,11.4062 5.520805,-4.2901 7.156787,-12.1082 4.5625,-18.4687 4.509566,-1.6374 -1.886359,-8.7772 3.863619,-8.2129 8.940623,2.282 1.791695,-11.35066 9.310123,-10.30254 8.347914,2.86284 3.157272,-8.92243 8.638758,-8.45331 3.961753,1.34014 -0.164124,-3.17359 -1.71875,-3 z M 25.1875,1022.875 c 7.125982,-0.7268 9.798724,10.2019 3.21875,12.9062 -6.018981,3.2954 -12.790426,-5.0001 -8.34375,-10.25 1.222924,-1.5565 3.124349,-2.6107 5.125,-2.6562 z"
         id="path3845"
         inkscape:connector-curvature="0" />
      <path
         style="opacity:0.06666703;fill:#000000;fill-opacity:1;fill-rule:evenodd;stroke:none"
         d="m 65.0625,988.125 c -9.725223,6.00131 -17.49633,14.9553 -26.375,22.3125 -10.735199,-6.3832 -25.427574,3.5788 -23.65625,15.75 0.671321,12.738 17.851766,19.3434 26.84375,10.3125 4.994655,-4.4844 6.53087,-11.8738 4.0625,-18.0938 4.557219,-1.7786 -2.117838,-9.1775 4.478022,-8.0769 7.945599,2.0405 1.673391,-9.9925 7.358879,-10.0399 8.684337,2.8855 5.05206,-7.63148 9.475599,-8.6019 4.946606,1.18417 1.06086,-2.17088 -0.59375,-3.5 -0.437053,-0.35441 -1.090546,-0.26187 -1.59375,-0.0625 z m -39.84375,35.0938 c 6.803003,-0.6525 9.270865,9.8347 2.90625,12.2812 -5.973295,3.1553 -12.247839,-5.5098 -7.375,-10.1875 1.118095,-1.2533 2.789311,-2.0253 4.46875,-2.0937 z"
         id="path3849"
         inkscape:connector-curvature="0" />
      <path
         style="opacity:0.06666703;fill:#000000;fill-opacity:1;fill-rule:evenodd;stroke:none"
         d="m 65.53125,987.625 c -10.271472,5.56378 -17.819129,15.156 -26.9375,22.375 -11.194656,-6.4058 -26.251222,4.3124 -23.8125,17 1.210076,12.5567 18.394433,18.7832 27.3125,9.75 5.035009,-4.3802 6.71167,-12.0212 4.25,-18.2188 4.451956,-1.6591 -2.03059,-8.8467 4.134552,-7.8563 8.68986,2.0393 1.175468,-11.95057 9.313732,-10.2747 8.271116,2.6063 2.294553,-10.01766 8.989216,-8.3377 4.33293,1.349 -1.416619,-4.86584 -3.25,-4.4375 z m -40.3125,35.9688 c 6.434595,-0.6561 8.779893,9.2522 2.78125,11.5937 -5.949249,3.0943 -11.848723,-5.8481 -6.5625,-10.0625 1.037362,-0.9247 2.378891,-1.5294 3.78125,-1.5312 z"
         id="path3853"
         inkscape:connector-curvature="0" />
      <path
         style="opacity:0.06666703;fill:#000000;fill-opacity:1;fill-rule:evenodd;stroke:none"
         d="m 65.46875,987.28125 c -7.777609,3.62943 -13.306552,10.75743 -19.998697,16.09885 -2.975193,1.5397 -5.248967,7.3116 -8.791476,5.4221 -10.407089,-4.1499 -22.834632,4.6145 -22.428577,15.8228 -0.398793,11.1772 11.998747,19.9282 22.34375,15.8125 8.680904,-2.7164 13.565751,-13.2939 10.15625,-21.8125 4.209038,-1.3406 -1.515252,-7.7914 3.225756,-7.5211 6.059937,1.0812 5.758177,-4.0706 6.137705,-8.5549 0.468514,-4.10466 9.503609,0.5515 9.026846,-4.51499 -0.09583,-4.09403 0.802855,-6.67076 5.172193,-5.69026 1.590987,-0.9115 -1.835625,-3.05331 -2.4375,-4.125 -0.6415,-0.60641 -1.488003,-1.15699 -2.40625,-0.9375 z M 25.25,1023.9375 c 5.774502,-0.5422 8.199094,8.0627 3.09375,10.6563 -4.75132,3.1443 -10.951645,-3.1841 -7.78125,-7.8438 0.933702,-1.6636 2.785008,-2.7377 4.6875,-2.8125 z"
         id="path3857"
         inkscape:connector-curvature="0" />
      <path
         style="opacity:0.06666703;fill:#000000;fill-opacity:1;fill-rule:evenodd;stroke:none"
         d="m 65.4375,986.90625 c -4.750172,1.62948 -8.116355,5.78302 -11.968963,8.85223 -5.045509,4.47932 -9.921297,8.94022 -14.999787,13.39772 -8.090078,-4.1393 -18.938234,-0.4058 -22.784719,7.8195 -4.303999,8.1011 -0.587765,19.1369 7.726357,23.002 7.980774,4.2159 18.801513,0.6998 22.808362,-7.3839 2.23183,-4.2107 2.581298,-9.3617 0.9375,-13.8438 1.906954,-0.9992 1.811979,-2.8049 1.40625,-4.6562 -1.170601,-2.6722 1.081047,-2.6948 3.209975,-2.8831 2.42934,-0.077 4.569569,-0.4355 4.055573,-3.3889 0.263837,-2.1075 0.54048,-4.2134 0.796952,-6.3218 2.84415,-0.3298 5.687433,-0.6672 8.53125,-1 0.359488,-2.59437 0.756185,-5.18423 1.09375,-7.78125 1.645724,0.0438 3.368017,0.24768 4.96875,-0.1875 -0.04071,-2.24678 -2.412132,-3.65762 -3.8125,-5.15625 -0.589799,-0.37735 -1.257197,-0.62697 -1.96875,-0.46875 z M 25.25,1024.3125 c 4.3226,-0.4435 7.269121,5.2017 4.53125,8.5 -2.352864,3.6836 -8.772474,2.3933 -9.5,-1.9063 -0.866291,-3.1814 1.6959,-6.5768 4.96875,-6.5937 z"
         id="path3861"
         inkscape:connector-curvature="0" />
      <path
         style="opacity:0.06666703;fill:#000000;fill-opacity:1;fill-rule:evenodd;stroke:none"
         d="m 19.281021,1011.6489 c -7.160999,6.4909 -7.704221,17.558 -1.213294,24.719 6.490928,7.161 17.55798,7.7042 24.718979,1.2133 1.79025,-1.6228 3.167541,-3.5318 4.124094,-5.594 0.956486,-2.0623 1.493105,-4.2776 1.602913,-6.5142 0.10974,-2.2367 -0.207279,-4.4938 -0.957267,-6.6398 0.555733,-0.5132 1.092262,-1.0188 1.622934,-1.5133 -0.01271,-1.7306 -0.536714,-5.2918 -0.536714,-5.2918 l 7.131896,-1.0658 1.156909,-9.1467 8.544409,-0.9965 1.087578,-7.73417 c 0,0 4.238574,0.22325 4.969795,-0.28703 0.08369,-1.4393 0.078,-1.58908 -1.936776,-3.81185 -4.701137,-5.18645 -4.770763,-3.77462 -31.190459,19.75205 -2.062232,-0.9565 -4.277514,-1.4931 -6.514182,-1.6029 -2.236602,-0.1098 -4.493878,0.2073 -6.639846,0.9573 -2.145974,0.7499 -4.180719,1.9337 -5.970969,3.5564 z m 2.837972,14.2985 c 2.046,-1.8546 5.208018,-1.6994 7.062566,0.3466 1.854547,2.046 1.699344,5.208 -0.346656,7.0626 -2.046,1.8545 -5.208018,1.6993 -7.062565,-0.3467 -1.854548,-2.046 -1.699345,-5.208 0.346655,-7.0625 z"
         id="path3865"
         inkscape:connector-curvature="0" />
      <path
         style="opacity:0.06666703;fill:#000000;fill-opacity:1;fill-rule:evenodd;stroke:none"
         d="m 65.34375,986.21875 c -4.697273,1.44307 -8.035765,5.53524 -11.84375,8.5 -5.101456,4.56338 -10.079701,9.11025 -15.1875,13.59375 -8.518372,-4.0501 -19.721353,0.1039 -23.46875,8.7813 -4.13268,8.4005 -0.270272,19.549 8.225688,23.5034 7.889119,4.1405 18.537998,1.1446 23.088597,-6.4626 2.82417,-4.4536 3.482415,-10.1916 1.810715,-15.1971 1.895955,-0.9176 1.645592,-2.6907 1.33556,-4.4487 -1.193851,-2.6391 1.304693,-2.4516 3.260503,-2.695 2.375702,-0.038 4.370936,-0.4232 3.874573,-3.274 0.270204,-2.1316 0.540409,-4.2632 0.810614,-6.3948 2.843826,-0.3327 5.687087,-0.6703 8.53125,-1 0.355812,-2.56367 0.730635,-5.1248 1.09375,-7.6875 1.557524,-0.13316 3.894187,0.48474 5,-0.59375 0.363146,-2.70189 -2.460132,-4.31396 -4.0625,-6.0625 -0.737608,-0.48969 -1.579717,-0.73232 -2.46875,-0.5625 z M 25.28125,1025 c 3.753249,-0.3456 6.30601,4.563 3.9375,7.375 -2.986186,4.5889 -10.491738,0.1114 -7.96875,-4.6875 0.749948,-1.569 2.327192,-2.6046 4.03125,-2.6875 z"
         id="path3867"
         inkscape:connector-curvature="0" />
      <path
         style="opacity:0.06666703;fill:#000000;fill-opacity:1;fill-rule:evenodd;stroke:none"
         d="m 65.28125,985.84375 c -7.591687,2.98267 -12.790822,10.09712 -19.155924,15.04035 -3.047577,1.7102 -5.489169,6.9384 -8.913524,6.6006 -10.949911,-4.406 -24.244179,4.4317 -24.368052,16.2341 -0.985893,11.7331 11.17162,21.7846 22.53125,18.5937 9.994026,-2.1892 16.381458,-13.5393 13,-23.25 3.789515,-1.2741 -1.302115,-7.1873 3.181499,-6.7251 5.886938,1.0633 5.400034,-4.1077 5.845317,-8.3606 0.221263,-4.2985 9.298773,0.4103 8.985962,-4.48501 0.323754,-3.143 -0.02301,-6.85787 4.112222,-5.71054 3.618973,-0.29132 0.879514,-4.62628 -0.861728,-5.80403 -1.094683,-1.22544 -2.540549,-2.4786 -4.357022,-2.13347 z m -40,39.53125 c 4.98818,-0.5145 6.173318,7.5082 1.1875,8.4375 -4.549486,1.4163 -7.446022,-5.7985 -3.15625,-7.875 0.636671,-0.2993 1.253813,-0.604 1.96875,-0.5625 z"
         id="path3871"
         inkscape:connector-curvature="0" />
      <path
         style="opacity:0.06666703;fill:#000000;fill-opacity:1;fill-rule:evenodd;stroke:none"
         d="m 65.25,985.5 c -9.577948,4.16585 -16.274812,13.31565 -24.396733,19.6148 -2.719451,4.6152 -7.465188,-0.4152 -11.603267,1.0102 -13.060007,0.6723 -21.3333215,16.976 -14.1875,28 6.234805,11.62 24.776895,12.017 31.5,0.6875 3.00164,-4.513 3.860023,-10.4335 2.21875,-15.625 2.716851,-3.4248 -0.202659,-8.3876 6.99723,-7.1326 2.349201,-4.091 0.563448,-12.26389 9.079631,-10.0932 4.068531,-0.6449 -0.0539,-9.69423 6.048139,-7.8992 4.172979,-1.23938 -0.243552,-6.00991 -2.25,-7.53125 C 67.70711,985.72645 66.503535,985.27157 65.25,985.5 z m -39.9375,40.2188 c 5.837744,-0.4156 4.81494,9.3971 -0.8125,7.7187 -4.343772,-1.0166 -3.62685,-7.5695 0.8125,-7.7187 z"
         id="path3875"
         inkscape:connector-curvature="0" />
      <path
         style="opacity:0.06666703;fill:#000000;fill-opacity:1;fill-rule:evenodd;stroke:none"
         d="m 65.40625,985.125 c -8.876328,3.30688 -14.806781,11.75137 -22.212876,17.4373 -2.632778,2.4363 -4.882015,5.6415 -8.568374,3.4689 -12.949296,-3.0856 -25.6977525,10.3671 -21.96875,23.125 2.638531,13.141 20.420563,19.0393 30.34375,10.0938 5.877435,-4.5795 8.376414,-12.8939 6.1875,-20 2.502541,-3.3875 -0.188271,-8.0808 6.8125,-6.875 3.145341,-2.9458 -0.272259,-12.42502 8.17731,-9.9852 5.820971,1.0641 0.303415,-9.73247 6.51019,-7.92105 4.787343,-0.66956 1.044346,-6.21799 -1.34375,-7.8125 -1.050089,-0.99904 -2.456667,-1.76698 -3.9375,-1.53125 z m -40.0625,40.9688 c 5.333082,-0.4037 4.325478,8.5567 -0.78125,7 -3.935993,-0.9108 -3.248952,-6.9751 0.78125,-7 z"
         id="path3879"
         inkscape:connector-curvature="0" />
      <path
         style="opacity:0.06666703;fill:#000000;fill-opacity:1;fill-rule:evenodd;stroke:none"
         d="m 65.15625,984.78125 c -9.23517,3.73646 -15.541616,12.49629 -23.28125,18.46875 -2.179129,3.3464 -4.745477,3.5326 -8.0625,2.2812 -13.352071,-2.5328 -25.6443417,11.783 -21.28125,24.5938 3.258212,12.7964 20.828962,18.2824 30.6875,9.4062 5.914377,-4.6592 8.493703,-12.9153 6.375,-20.125 3.145003,-2.1198 -1.372247,-7.9345 5.017568,-6.4416 6.608649,0.127 -0.01603,-12.7164 8.885537,-10.1126 6.845998,1.9371 1.368997,-9.11179 7.065645,-8.00825 5.282832,-0.22327 1.941557,-6.75987 -0.9375,-8.375 -1.101677,-1.20622 -2.806343,-1.96791 -4.46875,-1.6875 z M 25.375,1026.4375 c 4.789007,-0.2778 3.899287,7.681 -0.71875,6.3125 -3.55372,-0.8309 -2.900146,-6.3091 0.71875,-6.3125 z"
         id="path3883"
         inkscape:connector-curvature="0" />
      <path
         style="opacity:0.06666703;fill:#000000;fill-opacity:1;fill-rule:evenodd;stroke:none"
         d="m 65.28125,984.40625 c -9.081913,3.26554 -15.000073,11.86952 -22.566927,17.61335 -2.443157,2.2885 -4.555919,5.275 -7.995573,3.2929 -13.069364,-3.0317 -26.0623063,10.0791 -22.96875,23.0937 2.095145,13.7062 20.233729,20.7724 31,11.9688 6.417599,-4.6131 9.389476,-13.296 7.25,-20.875 1.70015,-3.8565 0.855892,-7.3076 7.082122,-6.5583 1.199387,-5.4176 1.336333,-11.8632 9.630037,-10.1188 2.203661,-2.1646 -0.281074,-8.89436 4.944091,-7.7604 4.770429,-1.84466 0.350903,-7.38611 -2.375,-9.40625 -1.114381,-0.89451 -2.556915,-1.47569 -4,-1.25 z M 25.25,1026.7812 c 5.009097,-0.3332 3.046553,7.8211 -1.25,5.3126 -2.391836,-1.4045 -1.476458,-5.0831 1.25,-5.3126 z"
         id="path3887"
         inkscape:connector-curvature="0" />
      <path
         style="opacity:0.06666703;fill:#000000;fill-opacity:1;fill-rule:evenodd;stroke:none"
         d="m 65.25,984.0625 c -8.916108,3.07411 -14.659922,11.40145 -22.043242,17.0372 -2.661447,2.0582 -4.748405,6.1169 -8.425508,3.8691 -13.30271,-3.0967 -26.5198869,10.2253 -23.375,23.5 2.084276,13.5578 19.622725,20.8662 30.71875,12.8124 6.964891,-4.5354 10.499578,-13.6382 8.25,-21.6562 2.079645,-3.4151 0.451663,-7.3223 6.770186,-6.3358 1.82034,-4.7841 1.065118,-12.1208 9.598501,-10.1201 2.975069,-1.1331 -0.474519,-8.92286 4.631313,-7.70035 5.392226,-1.04526 1.71265,-7.58915 -1.3125,-9.59375 -1.254116,-1.24871 -3.016687,-2.07805 -4.8125,-1.8125 z m -39.84375,43.0937 c 4.6894,0.022 1.869538,7.2578 -1.5625,4.4063 -1.771147,-1.5249 -0.645502,-4.4216 1.5625,-4.4063 z"
         id="path3891"
         inkscape:connector-curvature="0" />
    </g>
    <path
       style="fill:#ffffff;fill-opacity:1;fill-rule:evenodd;stroke:none"
       d="m 21.115847,1010.3589 c -6.073482,5.5051 -6.534207,14.8915 -1.029035,20.965 5.505172,6.0735 14.891507,6.5342 20.964989,1.029 1.518371,-1.3763 2.686497,-2.9954 3.497781,-4.7444 0.811228,-1.7491 1.266353,-3.628 1.359484,-5.5249 0.09307,-1.8971 -0.1758,-3.8114 -0.81189,-5.6315 0.471336,-0.4352 0.926384,-0.8641 1.376465,-1.2835 -0.01078,-1.4677 -0.455205,-4.4881 -0.455205,-4.4881 l 6.048798,-0.904 0.981213,-7.7576 7.246798,-0.8451 0.922411,-6.55965 c 0,0 3.594876,0.18935 4.215049,-0.24344 0.07098,-1.22071 0.06615,-1.34775 -1.642644,-3.23295 -3.987191,-4.3988 -4.046243,-3.20138 -26.453667,16.75234 -1.749048,-0.8112 -3.627903,-1.2663 -5.524895,-1.3594 -1.896937,-0.093 -3.811408,0.1758 -5.631475,0.8119 -1.820072,0.636 -3.545807,1.64 -5.064177,3.0163 z m 2.406978,12.127 c 1.735281,-1.5729 4.417094,-1.4413 5.989998,0.294 1.572903,1.7353 1.44127,4.417 -0.294011,5.99 -1.735281,1.5729 -4.417093,1.4412 -5.989996,-0.294 -1.572904,-1.7353 -1.441272,-4.4171 0.294009,-5.99 z"
       id="rect2989"
       inkscape:connector-curvature="0" />
  </g>
</svg>
